<?xml version="1.0" encoding="utf-8"?>
<!-- Generator: Adobe Illustrator 21.0.2, SVG Export Plug-In . SVG Version: 6.00 Build 0)  -->
<svg version="1.1" id="Layer_1" xmlns="http://www.w3.org/2000/svg" xmlns:xlink="http://www.w3.org/1999/xlink" x="0px" y="0px"
	 viewBox="0 0 105 122.5" style="enable-background:new 0 0 105 122.5;" xml:space="preserve">
<style type="text/css">
	.st0{fill:none;stroke:#231F20;stroke-miterlimit:10;}
	.st1{fill-rule:evenodd;clip-rule:evenodd;fill:none;stroke:#231F20;stroke-miterlimit:10;}
</style>
<g>
	<path class="st0" d="M31.9,16.2c1-0.7,1.8-1.2,2.6-1.8l0,0c0.1-0.1,0.3-0.2,0.5-0.3c0.5-0.3,0.9-0.6,1.2-0.8
		c0.3-0.2,0.7-0.5,0.9-0.7c0.3-0.2,0.5-0.4,0.6-0.5c0.1-0.1,0.3-0.2,0.4-0.4c0.3-0.3,0.5-0.6,0.7-0.8l0,0l0,0l0,0l0.2-0.2l1.8-2.1
		l0.2,0.7c0-0.1,0.1-0.1,0.1-0.2l0,0l0,0l0,0l0.1-0.2l0.7-1.3l1.3,0.6l0.3,0.1c0.2,0.1,0.5,0.2,0.7,0.3c0.3,0.1,0.7,0.3,1,0.5
		c0,0,0,0,0,0c0-0.1,0-0.1,0-0.1l0-0.1l0.4-1.5L47.4,8l0.5,0.2l0,0l0,0l0,0c0.5,0.2,1.5,0.5,2.8,0.8c0.6,0.2,0.9,0.3,1.2,0.3
		c1.2,0.3,2.4,0.7,3.4,1c0.8,0.3,1.7,0.5,2.4,0.8c0.5,0.2,1,0.4,1.5,0.6c-0.1-1.1,0-2.8,0.1-3.9l2.9,2.4l0,0c0.4,0.3,1.1,1,2.5,2
		c0.7,0.5,1.5,1,2.4,1.6c0.9,0.6,2.1,1.4,3.4,2.1c1.4,0.9,0.7,0.4,0.9,0.6c1.6,1,3.1,1.9,4.6,3c0.7,0.5,1.5,1.1,2.3,1.7
		c3.5,2.8,3.7,3.3,5.4,4.5c1.5-1,2.6-1.8,3.8-3.1c0.4-0.4,0.9-0.9,1.2-1.3c0.4-0.5,0.8-1,1.2-1.4c0.4-0.5,0.7-1,1-1.4
		c0.3-0.4,0.5-0.8,0.8-1.3c0.2-0.4,0.4-0.8,0.6-1.1c0.2-0.4,0.3-0.7,0.4-1.1c0.1-0.4,0.2-0.7,0.3-1c0.1-0.3,0.2-0.6,0.2-1
		c0.3-1.8,0.4-3.7,0.6-5.6c1.3,1.3,2.3,2.1,3.2,3.6c0.2,0.3,0.4,0.7,0.6,1c0.2,0.3,0.4,0.7,0.5,1.1c0.2,0.4,0.3,0.8,0.5,1.3
		c0.1,0.5,0.3,1,0.4,1.6c0.1,0.5,0.2,1.1,0.3,1.8c0.1,0.7,0.1,1.3,0.2,2c0,0.6,0,1.3,0,1.9c0,0.6-0.1,1.2-0.1,1.7
		c-0.1,0.6-0.1,1-0.2,1.5c0,0.2-0.1,0.3-0.1,0.5l0,0c1.7-1.9,1.9-2.5,2.1-2.9c0.7,1.8,1.1,3.6,1,6.1c0,0.7-0.1,1.5-0.2,2.4
		c-0.3,2-1.1,4.4-2.1,6c-0.6,1-1.1,1.6-1.6,2.2l-0.1,0.1l0,0c0.3,0.2,0.5,0.3,0.8,0.5c0.4,0.3,0.7,0.6,1,0.8c2.9,3.1,3.2,4.4,4,6.3
		c-2.3-1.1-3.6-1.4-5.3-1.7c-0.4-0.1-0.8-0.1-1.2-0.2C97.1,45,96.7,45,96.4,45c-0.3,0-0.6,0-0.9,0c-0.4,0-0.7,0.1-1,0.1
		c-0.1,0-0.3,0-0.4,0.1c0.1,0.2,0.1,0.4,0.2,0.5c0.2,0.7,0.3,1.3,0.5,1.8c0.2,0.6,0.3,1.1,0.5,1.8c0.2,0.7,0.3,1.3,0.5,2
		c0.2,0.7,0.3,1.5,0.5,2.4c0.2,0.9,0.3,1.9,0.4,2.8c0.1,0.9,0.2,2,0.2,3c0,1,0.1,2,0.1,2.9c0,0.9,0,1.8,0,2.6c0,0.9-0.1,1.8-0.1,2.8
		c-0.1,1-0.2,2.1-0.3,3.3c-0.1,1.1-0.3,2.3-0.5,3.3c-0.2,1.1-0.4,2.3-0.7,3.3c-0.3,1.1-0.5,2.1-0.8,3c-0.2,0.9-0.5,1.8-0.8,2.7
		c-0.3,0.9-0.5,1.7-0.8,2.5c-0.3,0.8-0.6,1.7-1,2.5c-0.3,0.7-0.7,1.5-1.1,2.3c-0.4,0.7-0.7,1.4-1.1,2c-0.4,0.8-0.9,1.4-1.3,2
		c-0.3,0.5-0.7,1-1,1.4c-0.4,0.6-0.6,0.8-0.7,0.9l-0.3,0.4l-2.1,2.8l-0.4-2c-0.2,0.3-0.5,0.7-0.8,1.1c-0.5,0.7-1.1,1.5-1.7,2.2
		c-0.7,0.8-1.3,1.7-2,2.4c-0.6,0.7-1.1,1.3-1.5,1.8c-0.5,0.5-0.9,1-1.4,1.6c-1.9,2-3,3.1-4.7,4.7l-0.2-2.3c-0.3,0.3-0.6,0.5-0.9,0.8
		c-0.8,0.7-1.7,1.6-2.6,2.4c-0.9,0.7-1.8,1.5-2.7,2.2c-1,0.8-2,1.5-3,2.2c-0.8,0.5-1.5,1-2.2,1.5c-0.9,0.6-1.7,1.1-2.3,1.5
		c-1.1,0.7-1.7,1-2,1.2l0,0l0,0l-0.3,0.2l-0.7,0.4l-0.7-0.3l-1.1-0.5c-0.4-0.2-1-0.5-2.3-1.1c-1-0.5-2.1-1-3.3-1.7
		c-1.3-0.7-2.4-1.3-3.5-1.9c-1.1-0.7-2.2-1.3-3.2-1.9c-0.9-0.6-1.7-1.1-2.4-1.6c-0.7-0.5-1.3-1-1.8-1.4c-0.2-0.2-0.5-0.4-0.7-0.6
		l0.1,2.2l-2.7-1.9l-0.7-0.5c-0.4-0.2-0.9-0.6-1.4-1c-0.6-0.5-1.4-1-2.1-1.5c-0.7-0.5-1.5-1.1-2.4-1.8c-0.8-0.7-1.7-1.4-2.5-2.1
		c-0.8-0.8-1.6-1.6-2.4-2.4c-0.8-0.8-1.5-1.7-2.2-2.6c-0.7-0.8-1.3-1.7-2-2.5c-0.7-0.9-1.3-1.7-1.9-2.6c-0.6-0.9-1.2-1.7-1.7-2.5
		c-0.5-0.8-1-1.6-1.5-2.4c-0.4-0.7-0.8-1.4-1.2-2.1c-0.5,1.7-0.8,3.3-1.2,5c-2-4-2.8-5.5-4-9.8c-0.3-1-0.5-2-0.7-3
		c-0.2-1.1-0.4-2.1-0.6-3.2c-0.2-1-0.3-1.9-0.4-2.9c-0.1-0.9-0.2-1.9-0.2-2.9c-0.1-1-0.1-2.1-0.1-3.2c0-1,0-2,0-3.1
		c0-1.1,0.1-2.1,0.2-3.1c0.1-1,0.2-2.1,0.3-3.1c0.2-1.1,0.3-2.1,0.5-3c0.2-1,0.5-2.1,0.8-3.2c0.3-1,0.5-2,0.9-3c0.3-1,0.6-2,1-2.9
		c0.3-0.9,0.7-1.8,1-2.7c0.1-0.3,0.2-0.6,0.4-0.9c-0.2,0-0.3-0.1-0.5-0.1C8,42,7.4,42,6.9,41.9c-0.5-0.1-1-0.1-1.3-0.1l-4.3-0.3
		c1.5-1.3,1.9-1.7,4.3-3.3c0.4-0.2,0.8-0.4,1.3-0.6c0.5-0.2,1-0.4,1.6-0.6c0.6-0.2,1.2-0.4,1.9-0.6c0.4-0.1,0.9-0.2,1.4-0.4
		c0.2,0,0.3-0.1,0.5-0.1c-0.2-0.3-0.5-0.6-0.7-0.9c-0.4-0.5-0.7-1-1.1-1.5c-0.3-0.5-0.7-1-1-1.6c-0.3-0.6-0.6-1.2-0.9-1.9
		c-0.3-0.7-0.6-1.4-0.8-2.2c-0.2-0.7-0.4-1.5-0.5-2.3c-0.1-0.9-0.2-1.7-0.3-2.5c0-0.8-0.1-1.5,0-2.1c0-0.7,0-1.3,0.1-1.8
		C7,18.5,7.1,18,7.2,17.5c0.1-0.5,0.2-1,0.3-1.4C7.7,15.7,7.8,15.3,8,15c0.7-1.5,1.5-3,2.2-4.4l0.7,2c0-0.2,0.1-0.3,0.1-0.5
		c0.1-0.5,0.2-1,0.4-1.5c0.1-0.5,0.3-1.1,0.5-1.6c0.2-0.5,0.4-1.1,0.6-1.7c0.2-0.6,0.5-1.2,0.8-1.7c0.3-0.5,0.6-1,0.8-1.4
		c1-1.5,2.7-2.6,4.3-3.3c0,2.1-0.1,3.5-0.1,5.1c0,0.4,0,0.8,0,1.2c0,0.4,0,0.8,0.1,1.3c0,0.5,0.1,0.9,0.1,1.2
		c0.1,0.4,0.1,0.8,0.2,1.2c0.1,0.3,0.1,0.7,0.3,1c0.1,0.4,0.2,0.7,0.3,1c0.1,0.4,0.3,0.8,0.6,1.3c0.2,0.4,0.4,0.9,0.6,1.3
		c0.3,0.5,0.5,0.9,0.8,1.4c0.3,0.4,0.6,0.8,1,1.2c0.4,0.4,0.7,0.8,1.1,1.2c0.4,0.4,0.8,0.8,1.3,1.1c0.3,0.2,0.5,0.4,0.9,0.6
		c0.8-0.6,1.5-1.2,2.3-1.7c0.3-0.2,0.6-0.4,0.8-0.6c0.4-0.3,0.8-0.6,1.1-0.8C30.5,17.3,31.1,16.8,31.9,16.2L31.9,16.2z"/>
	<path class="st1" d="M36.8,47.1C34.9,46,32.9,45,31,44.2c-1.9-0.8-3.7-1.5-5.5-2c-1.8-0.6-3.6-1-5.2-1.4c-1.6-0.4-2.9-0.7-3.9-0.9
		c-1.1-0.2-1.9-0.3-2.7-0.4c-0.8-0.1-1.6-0.2-2-0.2c-0.4,0-0.4,0-0.4,0s0,0,0.3-0.1c0.3-0.1,0.9-0.2,1.7-0.4
		c0.8-0.2,1.8-0.4,2.9-0.6c1-0.3,2.1-0.6,2.6-0.7c0.5-0.1,0.5-0.1,0.5-0.1s0,0-0.5-0.4c-0.5-0.4-1.5-1.2-2.4-2.1
		c-0.9-0.9-1.8-1.8-2.5-2.8c-0.7-1-1.3-2.2-1.7-3.2c-0.4-1-0.7-1.7-0.9-2.5c-0.2-0.8-0.5-1.6-0.6-2.3c-0.1-0.7-0.2-1.3-0.2-1.9
		c0-0.6-0.1-1.3-0.1-1.7c0-0.3,0-0.3,0-0.3s0,0,0.2,0.5c0.2,0.5,0.7,1.4,1.2,2.3c0.5,0.9,1.1,1.7,1.6,2.4c0.6,0.7,1.1,1.2,1.6,1.6
		c0.5,0.4,1,0.8,1.3,1c0.3,0.2,0.3,0.2,0.3,0.2s0,0-0.2-0.4c-0.2-0.4-0.6-1.2-0.9-2c-0.3-0.8-0.6-1.6-0.9-2.8
		c-0.2-1.2-0.4-2.7-0.5-4.1c-0.1-1.4-0.1-2.7,0-3.9c0.1-1.2,0.3-2.3,0.5-3.1c0.2-0.8,0.3-1.3,0.4-1.8c0.1-0.5,0.3-1.1,0.4-1.4
		c0.1-0.3,0.1-0.3,0.1-0.3s0,0,0,0.4c0,0.4,0,1.3,0.2,2.5c0.2,1.2,0.6,2.8,1.1,4.2c0.5,1.4,1.2,2.5,2,3.6c0.8,1.1,1.7,2.1,2.7,2.9
		c1,0.8,2,1.4,3.3,2.2c1.3,0.8,2.9,1.8,4.6,2.6c1.8,0.8,3.7,1.5,5.4,2.1c1.7,0.6,3.3,1.1,4.6,1.7c1.3,0.6,2.4,1.3,3.1,1.7
		c0.8,0.4,1.2,0.6,1.6,0.9c0.4,0.3,0.8,0.6,1.2,1.1c0.4,0.5,0.8,1,1,1.3c0.2,0.3,0.2,0.3,0.1-0.2c-0.1-0.5-0.3-1.4-0.4-2.4
		c-0.1-1-0.2-2.2-0.1-3.3c0-1.1,0.1-2.2,0.1-2.7c0-0.5,0-0.5,0-0.5s0,0,0.3,0.4c0.3,0.4,0.9,1.2,1.5,2.1c0.7,0.9,1.4,1.8,2,2.5
		c0.5,0.6,0.9,1,1.3,1.5c0.5,0.5,1.1,1,1.4,1.3c0.3,0.3,0.3,0.3,0.3,0.3s0,0,0.1-0.8c0.1-0.8,0.3-2.4,0.4-3.8
		c0.1-1.4,0.2-2.6,0.2-3.6c0-1,0-1.8,0-2.6c0-0.8-0.2-1.5-0.3-2.1c-0.1-0.6-0.2-1-0.3-1.2c-0.1-0.2-0.1-0.2-0.1-0.2s0,0,0.7,0.6
		c0.7,0.6,2.2,1.7,3.4,2.8c1.2,1.1,2.2,2,3.1,2.9c0.9,0.9,1.6,1.6,2.3,2.6c0.7,1,1.4,2.2,2.1,3.4c0.6,1.3,1.2,2.6,1.4,3.2
		c0.3,0.6,0.3,0.6,0.3,0.6c0,0,0,0,0.3-0.5c0.3-0.5,1-1.6,1.6-2.8c0.6-1.2,1.1-2.5,1.3-3.2c0.2-0.7,0.2-0.7,0.2-0.7s0,0,0.3,0.4
		c0.3,0.4,0.8,1.2,1.2,2c0.4,0.8,0.8,1.5,1.1,2.1c0.3,0.7,0.6,1.3,0.8,2c0.2,0.7,0.4,1.4,0.4,1.8c0.1,0.4,0.1,0.4,0.1,0.4
		s0,0,0.1-0.2c0.1-0.2,0.3-0.6,0.6-1.1c0.3-0.5,0.8-1,1.7-1.8c1-0.8,2.6-1.8,4-2.7c1.4-0.9,2.7-1.7,4-2.5c1.2-0.8,2.5-1.6,3.7-2.5
		c1.2-1,2.5-2.2,3.5-3.2c1-1,1.8-1.9,2.3-2.8c0.6-0.8,1-1.6,1.3-2.2c0.3-0.6,0.5-1.1,0.7-1.6c0.2-0.5,0.3-0.9,0.4-1.2
		c0.1-0.2,0.1-0.2,0.1-0.2s0,0,0,0.5c0,0.5,0.1,1.4,0.2,2.3c0.1,0.9,0.1,1.6,0.2,2.5c0,0.9,0,1.9-0.2,2.8c-0.1,0.9-0.3,1.7-0.6,2.5
		c-0.2,0.8-0.5,1.7-0.8,2.5c-0.3,0.8-0.5,1.4-0.8,1.9c-0.3,0.5-0.6,1-0.7,1.2c-0.1,0.2-0.1,0.2-0.1,0.2s0,0,0.4-0.1
		c0.4-0.1,1.2-0.2,1.9-0.4c0.7-0.2,1.3-0.4,1.9-0.8c0.6-0.4,1.2-0.8,1.4-1c0.3-0.2,0.3-0.2,0.3-0.2s0,0,0,0.3c0,0.3,0,0.8-0.1,1.4
		c-0.1,0.6-0.3,1.2-0.6,1.9c-0.3,0.7-0.7,1.4-1.2,2.1c-0.5,0.7-1.1,1.2-1.7,1.8c-0.6,0.6-1.4,1.1-2.2,1.6c-0.8,0.5-1.7,0.8-2.2,1
		c-0.5,0.2-0.5,0.2-0.5,0.2s0,0,0.3,0c0.3,0,0.8,0.1,1.7,0.4c0.9,0.3,2.2,0.9,2.9,1.2c0.7,0.3,1,0.5,1.1,0.6
		c0.1,0.1,0.1,0.1,0.1,0.1s0,0-0.5,0c-0.5,0-1.4-0.1-2.5,0c-1.2,0.1-2.6,0.3-3.7,0.6c-1.1,0.2-1.9,0.5-2.9,0.9
		c-1,0.5-2.2,1.2-3.3,1.8c-1.1,0.7-2,1.2-2.8,1.9c-0.9,0.7-1.6,1.4-2.6,2.3c-1,0.9-2.1,2.1-3.2,3.5c-1.1,1.4-2.3,3-3.2,4.6
		c-0.9,1.6-1.7,3.3-2.3,4.7c-0.6,1.4-1.2,2.6-1.5,3.6c-0.4,1-0.6,2-0.7,2.4c-0.1,0.5-0.1,0.5-0.1,0.5c0,0,0,0-0.1-0.2
		c-0.1-0.2-0.3-0.5-0.4-0.9c-0.1-0.4-0.2-0.8-0.3-1c0-0.2,0-0.2,0-0.2s0,0-0.2,0.3c-0.2,0.3-0.7,0.9-1.1,1.5
		c-0.4,0.6-0.9,1.3-1.2,1.9c-0.4,0.6-0.6,1.1-0.8,1.4C62.9,72,62.9,72,62.9,72s0,0-0.2-0.3c-0.2-0.3-0.7-1-1.1-1.6
		c-0.5-0.6-0.9-1.2-1.3-1.7c-0.4-0.5-0.8-0.8-1-1C59,67.2,59,67.2,59,67.4c0,0.2,0.1,0.7,0.1,1.1c0,0.4,0,0.9,0,1.1
		c0,0.2,0,0.2,0,0.2s0,0-0.2-0.3c-0.2-0.3-0.7-0.9-1.1-1.5c-0.4-0.5-0.8-1-1.4-1.5c-0.5-0.5-1.1-0.9-1.4-1.2
		c-0.3-0.2-0.3-0.2-0.3-0.2s0,0,0,0.2c0,0.2,0,0.6,0,1c0,0.4-0.1,0.9-0.2,1.3c-0.1,0.3-0.2,0.5-0.2,0.6c0,0.1,0,0.1,0,0.1
		s0,0-0.2-0.5c-0.2-0.5-0.5-1.6-1.1-3c-0.6-1.4-1.4-3.1-2.4-4.5c-0.9-1.5-2-2.7-3.4-4.3c-1.4-1.5-3.2-3.4-5-4.9
		C40.5,49.5,38.7,48.2,36.8,47.1L36.8,47.1z"/>
	<path class="st1" d="M41.9,53c-1.1-1-2.5-2.1-4.1-3.1c-0.8-0.5-1.6-1-2.4-1.4c0,0,0,0.1-0.1,0.1c-0.1,0.3-0.3,0.6-0.4,0.8
		c-0.2,0.4-0.3,0.7-0.4,1.1c-0.1,0.4-0.2,0.7-0.3,1.1c-0.1,0.4-0.1,0.7-0.1,1.1c0,0.4,0,0.8,0,1.2c0,0.4,0.1,0.7,0.2,1.1
		c0.1,0.4,0.2,0.7,0.3,1.1c0.1,0.4,0.2,0.7,0.4,1.1c0.2,0.3,0.3,0.7,0.5,1c0.2,0.3,0.4,0.6,0.7,0.9c0.3,0.3,0.6,0.5,0.9,0.8
		c0.3,0.2,0.6,0.4,1,0.6c0.3,0.2,0.7,0.3,1.1,0.4c0.4,0.1,0.8,0.2,1.3,0.3c0.4,0.1,0.9,0.1,1.3,0c0.4,0,0.9-0.1,1.2-0.2
		c0.4-0.1,0.7-0.2,1.1-0.3c0.3-0.1,0.5-0.2,0.8-0.3c0.2-0.1,0.4-0.2,0.6-0.4c0.2-0.2,0.5-0.3,0.7-0.5c0.2-0.2,0.5-0.4,0.7-0.6l0,0
		c0.2-0.2,0.3-0.3,0.4-0.5c0,0,0-0.1,0.1-0.1c-0.8-0.9-1.7-1.8-2.5-2.6C43.8,54.7,43,53.9,41.9,53L41.9,53z"/>
	<path class="st1" d="M79.3,50.3c-0.1,0.1-0.2,0.2-0.3,0.3c-0.8,0.7-1.5,1.6-2.3,2.4c-0.7,0.9-1.5,1.8-2.3,3
		c-0.8,1.1-1.6,2.4-2.3,3.6C72.1,59.7,72,59.8,72,60c0.2,0.1,0.5,0.3,0.8,0.3c0.2,0.1,0.5,0.1,0.8,0.2c0.3,0,0.6,0,0.9,0
		c0.3,0,0.7,0,1.1-0.1c0.4-0.1,0.8-0.2,1.1-0.3c0.3-0.1,0.6-0.3,0.9-0.5c0.3-0.2,0.7-0.5,0.9-0.8c0.3-0.3,0.5-0.5,0.7-0.8
		c0.2-0.3,0.4-0.5,0.5-0.8c0.1-0.3,0.2-0.5,0.3-0.8c0.1-0.3,0.2-0.5,0.2-0.8c0.1-0.3,0.1-0.6,0.2-0.9c0-0.3,0.1-0.5,0.1-0.8
		c0-0.3,0-0.5,0-0.8c0-0.2-0.1-0.5-0.1-0.7c-0.1-0.2-0.1-0.4-0.2-0.6c-0.1-0.2-0.1-0.3-0.2-0.5c-0.1-0.2-0.2-0.3-0.3-0.5
		c-0.1-0.2-0.2-0.3-0.3-0.4C79.4,50.4,79.3,50.3,79.3,50.3L79.3,50.3z"/>
	<path class="st1" d="M27.1,44.7c-1.2-0.4-2.5-0.8-3.7-1.2c-0.4-0.1-0.7-0.2-1.1-0.3c-0.2,0.5-0.5,1.3-0.8,2.3
		c-0.4,1.3-0.9,2.9-1.4,4.4c-0.4,1.5-0.7,3-0.9,4.4c-0.2,1.4-0.3,2.7-0.3,3.8c-0.1,1.2-0.1,2.2-0.1,3.5c0,1.3,0.2,2.7,0.3,3.5
		c0.1,0.7,0.1,0.7,0.1,0.7s0,0,0.2-0.3c0.2-0.3,0.5-1,0.8-1.6c0.4-0.6,0.8-1.2,1.2-1.6c0.4-0.4,0.6-0.6,0.7-0.8
		c0.1-0.1,0.1-0.1,0.1-0.1s0,0,0,0.3c0,0.3,0.1,0.9,0.2,1.9c0.2,1,0.5,2.5,0.9,3.9c0.4,1.4,0.9,2.7,1.4,3.9c0.5,1.2,1,2.2,1.4,2.9
		c0.4,0.7,0.7,1.1,0.8,1.3c0.1,0.2,0.1,0.2,0.1,0.2s0,0,0.1-0.4c0.1-0.4,0.4-1.2,0.9-2.1c0.4-0.8,1.1-1.6,1.4-2.1
		c0.4-0.5,0.5-0.6,0.6-0.7c0.1-0.1,0.1-0.1,0.1-0.1s0,0,0.1,0.4c0.1,0.4,0.2,1.1,0.3,1.9c0.2,0.8,0.4,1.7,0.7,2.6
		c0.3,0.8,0.5,1.5,0.7,2c0.2,0.5,0.3,0.7,0.3,0.8c0,0.1,0,0.1,0,0.1s0,0,0.2-0.3c0.2-0.3,0.6-0.8,1.2-1.4c0.6-0.6,1.3-1.3,2-1.9
		c0.7-0.6,1.5-1.1,2.2-1.6c0.7-0.5,1.4-0.8,2.1-1.2c0.7-0.3,1.6-0.6,2-0.8c0.4-0.2,0.4-0.2,0.4-0.2s0,0,0,0.2c0,0.2,0,0.6,0.1,1.1
		c0.1,0.5,0.3,1.2,0.4,1.5c0.1,0.3,0.1,0.3,0.1,0.3s0,0,0.3-0.6c0.3-0.6,0.9-1.7,1.6-2.8c0.7-1.1,1.4-2.2,2.2-3.1
		c0.7-0.9,1.4-1.8,2-2.5c0.6-0.7,1.1-1.2,1.4-1.5c-0.2-0.3-0.3-0.6-0.5-1c-0.2-0.4-0.5-0.9-0.8-1.4c-0.5,0.4-0.9,0.6-1.4,0.9
		c-0.5,0.3-1.1,0.7-1.9,1c-0.8,0.3-1.7,0.7-2.6,0.9c-1,0.2-1.9,0.3-3,0.3c-1,0-2.1-0.1-3-0.3c-0.9-0.2-1.7-0.4-2.6-0.9
		c-0.9-0.5-2-1.1-2.8-1.7c-0.8-0.6-1.5-1.2-2.1-2c-0.6-0.8-1.3-1.7-1.9-2.6c-0.5-0.9-1-1.7-1.3-2.5c-0.3-0.8-0.5-1.5-0.7-2.3
		c-0.2-0.9-0.4-1.9-0.5-2.4c-0.1-0.5-0.1-0.5-0.1-0.5s0,0,0.1,0.1c0.1,0.1,0.3,0.4,0.6,0.7c0.2,0.2,0.5,0.5,0.7,0.6
		c0.1,0.1,0.1,0.1,0.1,0.1s0,0,0-0.3c0-0.3-0.1-0.9-0.1-1.6c0-0.7,0-1.6,0.1-2.4C27,45.7,27.1,45.2,27.1,44.7L27.1,44.7z"/>
	<path class="st1" d="M87.6,44.6c-0.1,0-0.1,0-0.2,0.1C87,44.8,86.5,45,86,45.2c0,0.2,0,0.3,0.1,0.5c0,0.5,0.1,1.1,0.1,1.8
		c0,0.8,0,1.7-0.1,2.6C86,51,85.9,51.7,85.8,52c-0.1,0.3-0.1,0.3-0.1,0.3s0,0,0.1-0.1c0.1-0.1,0.3-0.2,0.5-0.3
		c0.2-0.1,0.4-0.3,0.5-0.3c0.1-0.1,0.1-0.1,0.1-0.1s0,0-0.1,0.3c-0.1,0.3-0.2,0.9-0.3,1.6c-0.1,0.6-0.3,1.3-0.5,1.9
		c-0.2,0.6-0.5,1.1-0.8,1.7c-0.4,0.6-0.9,1.4-1.4,2.1c-0.6,0.7-1.2,1.4-1.9,1.9c-0.6,0.5-1.2,1-1.9,1.4c-0.7,0.4-1.5,0.8-2.4,1
		c-0.9,0.3-1.9,0.4-2.8,0.4c-1,0-2-0.2-2.8-0.5c-0.6-0.2-1-0.4-1.4-0.6c0,0.1-0.1,0.1-0.1,0.2c-0.2,0.3-0.3,0.6-0.5,0.9
		c0.2,0.3,0.6,0.9,1,1.5c0.4,0.8,0.9,1.6,1.3,2.5c0.4,0.9,0.8,1.7,1.1,2.4c0.3,0.7,0.5,1.2,0.7,1.8c0.2,0.5,0.4,1.1,0.5,1.3
		c0.1,0.3,0.1,0.3,0.1,0.3c0,0,0,0,0.2-0.3c0.2-0.3,0.6-0.8,0.9-1.3c0.3-0.5,0.6-0.9,0.8-1.3c0.2-0.4,0.4-0.8,0.6-1.1
		c0.2-0.3,0.3-0.5,0.3-0.6c0.1-0.1,0.1-0.1,0.1-0.1s0,0,0.1,0.4c0.1,0.4,0.4,1.1,0.6,1.7c0.2,0.6,0.3,1.1,0.4,1.6
		c0.1,0.5,0.2,0.9,0.2,1.3c0,0.4,0.1,0.7,0.1,0.8c0,0.1,0,0.1,0,0.1s0,0,0.2-0.3c0.2-0.3,0.7-0.9,1.1-1.5c0.4-0.6,0.7-1.2,1-1.7
		c0.3-0.5,0.5-0.9,0.7-1.4c0.2-0.5,0.5-1.1,0.7-1.4c0.1-0.3,0.1-0.3,0.1-0.3s0,0,0.1,0.2c0.1,0.2,0.3,0.6,0.4,1
		c0.1,0.4,0.2,0.7,0.3,0.9c0.1,0.2,0.1,0.4,0.1,0.4c0,0.1,0,0.1,0,0.1s0,0,0.2-0.3c0.2-0.3,0.6-0.9,1-1.5c0.4-0.7,0.8-1.4,1.2-2.2
		c0.4-0.8,0.7-1.5,1-2.2c0.3-0.6,0.5-1.2,0.6-1.7c0.2-0.5,0.3-1.1,0.4-1.3c0.1-0.3,0.1-0.3,0.1-0.3c0,0,0,0,0.1,0.1
		c0.1,0.1,0.2,0.2,0.3,0.4c0.1,0.2,0.3,0.4,0.4,0.5c0.1,0.1,0.1,0.1,0.1,0.1s0,0,0.1-0.3c0.1-0.3,0.2-0.8,0.4-1.7
		c0.1-0.9,0.2-2,0.3-3c0-1,0-1.8-0.1-2.9c-0.1-1.1-0.3-2.5-0.4-3.5c-0.2-1-0.3-1.7-0.6-2.5c-0.2-0.8-0.5-1.6-0.7-2.3
		C87.9,45.5,87.7,44.9,87.6,44.6L87.6,44.6z"/>
	<path class="st1" d="M69.4,65c-0.1,0.1-0.1,0.2-0.2,0.3c-0.4,0.8-0.7,1.7-0.9,2.6c-0.3,0.9-0.4,1.9-0.5,2.7c-0.1,0.9,0,1.6,0,2
		c0,0.4,0,0.4,0,0.4s0,0-0.1-0.3c-0.1-0.1-0.2-0.3-0.3-0.5c-0.1,0.3-0.3,0.8-0.5,1.4c-0.2,0.7-0.5,1.4-0.8,2.1
		c-0.3,0.7-0.6,1.3-0.9,2c-0.3,0.7-0.7,1.4-1,2.1c-0.4,0.7-0.7,1.3-1,1.7c-0.3,0.5-0.7,0.9-1.1,1.3c-0.4,0.4-0.9,0.9-1.3,1.2
		c-0.4,0.4-0.9,0.7-1.4,1c-0.5,0.3-1.1,0.6-1.4,0.7c-0.3,0.1-0.5,0.1-0.5,0.2c-0.1,0-0.1,0-0.1,0s0,0,0.1-0.2
		c0.1-0.2,0.3-0.5,0.5-0.9c0.2-0.4,0.3-0.8,0.4-1.3c0.1-0.5,0.1-1.2,0.1-1.8c0-0.6-0.1-1.1-0.2-1.8c-0.1-0.7-0.2-1.5-0.4-2.2
		c-0.2-0.7-0.4-1.1-0.6-1.5c-0.2-0.4-0.3-0.7-0.5-1c-0.2-0.2-0.4-0.4-0.6-0.5c-0.2-0.1-0.4-0.1-0.6-0.1c-0.1,0-0.1,0-0.1,0
		s0,0,0-0.2c0-0.2-0.1-0.6-0.2-1.1c-0.1-0.5-0.3-1-0.5-1.6c-0.1-0.3-0.3-0.6-0.5-0.9l0,0c-0.2,0.4-0.5,0.7-0.6,0.9
		C53.5,72,53.5,72,53.5,72s0,0-0.1-0.5C53.4,71,53.3,70.1,53,69c-0.3-1.1-0.8-2.3-1.3-3.4c-0.1-0.2-0.2-0.4-0.3-0.6
		c-0.4,0.4-1.1,1-1.8,1.7c-0.7,0.8-1.5,1.7-2.2,2.6c-0.7,1-1.3,2.1-1.9,3c-0.5,0.9-0.9,1.7-1.2,2.3c-0.3,0.7-0.5,1.2-0.7,1.7
		c-0.2,0.5-0.3,0.8-0.4,1c-0.1,0.2-0.1,0.2-0.1,0.2s0,0-0.1-0.3c-0.1-0.3-0.4-0.8-0.6-1.3c-0.2-0.6-0.4-1.2-0.6-1.7
		c-0.1-0.5-0.2-0.9-0.3-1.2c-0.1-0.2-0.1-0.2-0.1-0.2s0,0-0.3,0.2c-0.3,0.2-1,0.5-1.6,0.8c-0.6,0.3-1.1,0.7-1.6,1
		c-0.5,0.4-0.9,0.7-1.1,0.9c-0.2,0.2-0.2,0.2-0.2,0.2s0,0,0.3,0.3c0.3,0.3,1,0.9,1.7,1.5c0.7,0.5,1.3,1,2.2,1.6
		c0.9,0.6,2,1.5,3.3,2.3c1.3,0.8,2.8,1.6,3.9,2.2c1.1,0.6,1.9,1,2.8,1.4c0.9,0.4,1.9,0.8,2.9,1.2c1,0.4,2.1,0.8,2.8,1.1
		c0.7,0.2,1,0.3,1.2,0.4c0.2,0,0.2,0,0.5,0c0.2,0,0.7-0.1,1.4-0.4c0.7-0.3,1.8-0.7,2.8-1.3c1.1-0.6,2.2-1.3,3.3-2.1
		c1.1-0.8,2.3-1.6,3.5-2.7c1.2-1,2.5-2.2,3.5-3.1c1-0.9,1.7-1.5,2.2-2.1c0.6-0.6,1-1.2,1.4-1.6c0.3-0.4,0.5-0.7,0.6-0.8
		s0.1-0.1,0.1-0.1s0,0,0-0.1c0-0.1,0.1-0.4,0.1-0.7c0-0.2,0-0.4,0-0.5c0-0.1,0-0.1,0-0.1l0,0c0,0,0,0-0.1,0.1
		c-0.1,0.1-0.3,0.4-0.5,0.8c-0.2,0.4-0.6,0.8-1,1.3c-0.4,0.5-0.9,1-1.1,1.3c-0.2,0.3-0.2,0.3-0.2,0.3l0,0c0,0,0,0-0.1-0.4
		c-0.1-0.4-0.4-1.2-0.7-2c-0.3-0.8-0.5-1.4-0.7-2.1c-0.2-0.6-0.5-1.2-0.8-1.9c-0.3-0.7-0.8-1.7-1.1-2.3c-0.3-0.7-0.6-1.1-0.9-1.6
		C69.7,65.3,69.6,65.1,69.4,65L69.4,65z"/>
	<path class="st1" d="M59.8,74.6c0.1,0.2,0.2,0.5,0.3,0.7c0.1,0.3,0.1,0.5,0.2,0.7c0,0.2,0,0.3,0.1,0.3c0,0.1,0,0.1,0,0
		c0-0.1,0.1-0.3,0.2-0.5c0.1-0.2,0.1-0.5,0.1-0.8c0-0.3-0.1-0.5-0.1-0.7c-0.1-0.2-0.1-0.2-0.3-0.2c-0.1,0-0.3-0.1-0.4-0.1
		c-0.1,0-0.1,0-0.1,0.1C59.7,74.4,59.8,74.5,59.8,74.6L59.8,74.6z"/>
</g>
</svg>
