<?xml version="1.0" encoding="utf-8"?>
<!-- Generator: Adobe Illustrator 21.0.2, SVG Export Plug-In . SVG Version: 6.00 Build 0)  -->
<svg version="1.1" id="Layer_1" xmlns="http://www.w3.org/2000/svg" xmlns:xlink="http://www.w3.org/1999/xlink" x="0px" y="0px"
	 viewBox="0 0 396 148" style="enable-background:new 0 0 396 148;" xml:space="preserve">
<image style="display:none;overflow:visible;" width="1920" height="1080" xlink:href="2A646A3F.jpg"  transform="matrix(1 0 0 1 -830 -571)">
</image>
<image style="display:none;overflow:visible;" width="1160" height="772" xlink:href="C:\Users\Obama\Desktop\1-.jpg"  transform="matrix(0.5431 0 0 0.5431 -82 -174)">
</image>
<g>
	<path d="M82.6,22.8c-1.9,3.8-3.8,7.6-5.7,11.4C74.9,38,73,41.6,71.2,45c-1.8,3.4-3.5,6.5-4.9,9.2c-0.2,0.4-0.3,0.9-0.2,1.2
		c0.1,0.4,0.3,0.5,0.7,0.5c0.4,0,0.7,0.1,0.6,0.4c0,0.3-0.3,0.5-0.7,0.6c-0.2,0.1-0.6,0.2-1.1,0.4c-0.5,0.2-1,0.4-1.4,0.5
		c-3.1,5.2-6.2,10.4-9.5,15.4c-3.3,5-6.9,9.8-10.9,14.5c-2,2.3-4.2,4.6-6.5,6.8c-2.3,2.2-4.8,4.2-7.4,6c-2.6,1.8-5.5,3.5-8.5,4.9
		s-6.3,2.6-9.8,3.4c-2.5,0.6-4.7,0.7-6.4,0.2c-1.8-0.5-3.1-1.4-3.9-2.8c-0.8-1.3-1.1-3-0.8-5.1c0.3-2,1.3-4.3,2.9-6.7
		c1.8-2.7,4.2-5.4,6.9-8.1c2.8-2.7,5.8-5.3,9.1-7.7c3.3-2.5,6.8-4.8,10.5-7.1c3.7-2.2,7.4-4.3,11.1-6.2c3.7-1.9,7.3-3.5,10.8-4.9
		c3.5-1.4,6.8-2.6,9.8-3.6c1.8-3.4,3.6-7,5.6-10.7c1.9-3.7,3.8-7.4,5.6-11c1.8-3.6,3.5-7.1,5.1-10.5c1.6-3.4,3-6.5,4.2-9.2
		c-3.7,0-7.4,0.5-11.1,1.5c-3.7,1-7.3,2.4-10.7,4.3C57,23,53.9,25.3,51,27.9c-2.8,2.6-5.3,5.6-7.3,9c-0.8,1.3-1.6,2.8-2.4,4.5
		c-0.8,1.6-1.4,3.4-1.8,5.2c-0.4,1.8-0.6,3.6-0.5,5.5c0.1,1.8,0.5,3.6,1.3,5.3c0.3,0.4,0.3,0.7,0.1,0.9c-0.2,0.1-0.5,0-0.8-0.5
		c-0.8-1.4-1.4-3-1.8-4.8c-0.4-1.8-0.6-3.7-0.6-5.7c0-2,0.3-4,0.8-6.1c0.5-2,1.3-4,2.4-5.8c1.8-3.2,4-5.9,6.6-8.2
		c2.5-2.3,5.2-4.2,8-5.8c2.8-1.6,5.6-2.9,8.5-3.9c2.8-1,5.5-1.8,8-2.5c2.5-0.6,4.7-1.1,6.7-1.5c1.9-0.4,3.4-0.7,4.3-1
		c0.8-0.1,1.4-0.3,2-0.7c0.5-0.4,1-0.7,1.3-1.1c0.2-0.2,0.5-0.3,0.8-0.3c0.3,0.1,0.5,0.2,0.8,0.3c0.3,0.2,0.4,0.4,0.5,0.6
		c0.1,0.2,0.1,0.4,0,0.6C86.2,15.3,84.5,19,82.6,22.8z M46.1,64.6c-5.2,2.5-10.4,5.4-15.4,8.6c-5,3.2-9.7,6.7-14.1,10.5
		c-4.4,3.8-8,7.7-11,11.8c-1.7,2.3-2.7,4.4-3.1,6.1c-0.4,1.7-0.3,3.1,0.4,4.1c0.6,1,1.7,1.6,3.2,1.9c1.5,0.3,3.3,0.1,5.4-0.4
		c3.3-0.9,6.5-2.1,9.4-3.6c2.9-1.5,5.6-3.2,8.1-5c2.5-1.9,4.8-3.9,7-6c2.1-2.1,4.1-4.2,6-6.4c1.4-1.6,3-3.6,4.7-6
		c1.7-2.4,3.5-5,5.2-7.6c1.8-2.6,3.4-5.2,5-7.8c1.6-2.5,2.9-4.7,4.1-6.5C56.3,60.1,51.3,62.1,46.1,64.6z"/>
	<path d="M87.9,65.8c-1.4,1.1-2.9,2.2-4.5,3.3c-1.6,1.1-3.3,2.2-5,3.2c-1.7,1-3.1,1.8-4.4,2.3c-0.3,0.1-0.9,0.1-1.5,0
		c-0.7-0.1-1.4-0.4-2.1-0.8c-0.7-0.4-1.3-1-1.8-1.7c-0.5-0.7-0.8-1.5-0.8-2.6c0-0.9,0.2-2.1,0.7-3.5c0.4-1.4,1-2.9,1.7-4.5
		c0.7-1.6,1.4-3.2,2.2-4.9c0.8-1.6,1.5-3.2,2.2-4.5c0.7-1.4,1.2-2.5,1.7-3.5c0.4-1,0.7-1.6,0.8-1.8c0.1-0.7,0.4-1.1,1-1.4
		c0.6-0.3,1.1-0.3,1.6-0.1c0.5,0.2,0.9,0.6,1.1,1.2c0.2,0.6,0.1,1.4-0.4,2.4c-1.9,3.6-3.4,6.3-4.4,8.2c-1,1.9-1.8,3.3-2.2,4.2
		c-0.4,0.9-0.7,1.4-0.8,1.6c-0.1,0.2-0.2,0.4-0.2,0.5c-0.1,0.2-0.2,0.5-0.4,0.9c-0.2,0.4-0.6,1.4-1.3,2.8c-0.7,1.4-1,2.5-1,3.2
		c0,0.8,0.2,1.3,0.5,1.6c0.4,0.3,0.9,0.5,1.5,0.5c0.6,0,1.2-0.1,1.7-0.2c1.1-0.2,2.4-0.8,4-1.6c1.6-0.8,3.2-1.8,4.9-2.8
		c1.7-1.1,3.2-2.1,4.7-3.2c1.4-1.1,2.6-2,3.3-2.7c0.5-0.5,0.9-0.8,1.1-0.8c0.2-0.1,0.3,0,0.4,0.2c0,0.2,0,0.4-0.2,0.8
		c-0.2,0.3-0.4,0.6-0.8,0.9C90.3,63.9,89.3,64.7,87.9,65.8z M83.3,40.6c-1.2,1.2-2.3,1.7-3.1,1.5c-1.2-0.2-1.8-0.7-1.8-1.4
		c0-0.8,0.6-1.8,1.9-3.1c1.3-1.3,2.3-2.1,3.1-2.3c0.6-0.1,1.2,0.1,1.7,0.5c0.5,0.5,0.7,1,0.5,1.5C85.5,38.3,84.7,39.4,83.3,40.6z"/>
	<path d="M82.8,75.2c-0.1-0.3-0.1-0.6,0.1-0.8C88.3,65.9,92,59.5,94,55c0.3-0.8,0.5-1.5,0.5-2.1c0-0.1-0.1-0.4-0.3-0.9
		c-0.1-0.2-0.1-0.4,0-0.6c0.7-0.2,2.8-1.4,6.3-3.5c0.1-0.1,0.2-0.2,0.3-0.2c0.3,0,0.6,0.1,0.7,0.4c0.2,0.3,0.2,0.6-0.1,0.9
		c-1.8,2.5-3.3,4.6-4.6,6.4c-1.3,1.8-2.2,3.3-2.8,4.6c-0.2,0.3-0.3,0.6-0.3,0.8c0,0.3,0.3,0.3,0.9,0.1c0.5-0.2,0.8-0.4,1-0.7
		c2.2-2.6,5-5.3,8.5-8.1c3.6-2.9,6.4-4.8,8.4-5.6c1.7-0.1,3,0.1,3.8,0.5c0.1,0.1,0.1,0.1,0.1,0.2c0,0.2-0.1,0.4-0.3,0.7
		c-0.2,0.3-0.4,0.6-0.7,0.8s-0.5,0.4-0.8,0.6c-0.3,0.1-0.5,0.2-0.7,0c-1.1-0.5-2.6-0.3-4.5,0.8c-8.3,4.6-15.6,12.2-22.1,22.8
		c0,0.2-0.2,0.4-0.7,0.6c-0.4,0.2-0.9,0.4-1.5,0.6c-0.6,0.3-1.2,0.6-1.9,1C83.1,75.5,82.9,75.5,82.8,75.2z"/>
	<path d="M105.4,71.7c-0.2-0.2-0.2-0.7,0.2-1.3c1.3-2.7,3.5-6.4,6.5-11.1c1.4-2.2,2.8-4.2,4.1-6c1.3-1.8,2.5-3.3,3.6-4.6
		c0.2-0.3,0.4-0.5,0.7-0.7c0.3-0.2,0.8-0.3,1.4-0.4c0.3-0.1,0.5-0.1,0.6,0c0,0.2-0.1,0.4-0.3,0.6c-2.1,2.5-3.9,4.9-5.5,7.3
		c-1.5,2.4-2.9,4.9-4,7.4c-0.2,0.3-0.3,0.6-0.3,1.1c0,0.6,0.2,0.9,0.7,0.9c0.3,0,0.7-0.2,1-0.6c1.6-1.5,3.2-3,4.9-4.5
		c1.7-1.5,3.4-2.9,5.2-4.4c4.2-3.3,7-5.3,8.5-5.9c0.8-0.7,1.5-1.1,2.1-1.3c1.2-0.6,2.2-0.7,2.9-0.3c0.8,0.3,0.8,0.9-0.1,1.9
		c-4,5.1-7.5,10.9-10.7,17.6c-3.1,6.6-4.7,11.8-4.9,15.7c-0.2,2.6,0.3,4.5,1.6,5.9c1.2,1.2,2.7,1.8,4.6,1.8c0.9,0,1.7-0.1,2.4-0.3
		c3.2-0.9,7.2-3.4,12-7.4c5.3-4.5,7.9-8.1,7.9-10.9c0-0.6-0.1-1-0.4-1.2c-0.3-0.3-0.5-0.4-0.9-0.5c-0.3-0.1-0.6-0.1-0.9-0.1
		c-0.2,0-0.3-0.1-0.3-0.3c0-0.3,0.2-0.6,0.7-0.8c0.5-0.2,0.9-0.3,1.3-0.3c0.9,0,1.4,0.6,1.4,1.9c0,0.6-0.2,1.4-0.5,2.4
		c-0.5,1.6-1.4,3.3-2.7,5.1c-1.3,1.8-2.9,3.7-4.9,5.6c-5.4,5.3-11.2,8.3-17.4,9c-2.2,0.2-4.1-0.4-5.5-1.8c-1.6-1.7-2.2-4.3-1.9-7.9
		c0.3-4,2.1-9.1,5.3-15.1c1.3-2.6,2.6-5,4.1-7.4c1.4-2.4,2.9-4.7,4.6-6.9c0.2-0.2,0.3-0.5,0.3-0.8c0-0.9-0.5-1.3-1.5-1.3
		c-0.4,0-0.9,0.1-1.3,0.4c-3.2,2.2-6.3,4.9-9.5,7.9c-3.2,3-6.4,6.4-9.7,10.3c-0.6,0.7-2,1.3-4.3,1.8
		C105.8,72.2,105.5,72.1,105.4,71.7z"/>
	<path d="M152.4,65.8c-1.4,1.1-2.9,2.2-4.5,3.3c-1.6,1.1-3.3,2.2-5,3.2c-1.7,1-3.1,1.8-4.4,2.3c-0.3,0.1-0.9,0.1-1.5,0
		c-0.7-0.1-1.4-0.4-2.1-0.8c-0.7-0.4-1.3-1-1.8-1.7c-0.5-0.7-0.8-1.5-0.8-2.6c0-0.9,0.2-2.1,0.7-3.5c0.4-1.4,1-2.9,1.7-4.5
		s1.4-3.2,2.2-4.9c0.8-1.6,1.5-3.2,2.2-4.5c0.7-1.4,1.2-2.5,1.7-3.5c0.4-1,0.7-1.6,0.8-1.8c0.1-0.7,0.4-1.1,1-1.4
		c0.6-0.3,1.1-0.3,1.6-0.1c0.5,0.2,0.9,0.6,1.1,1.2c0.2,0.6,0.1,1.4-0.4,2.4c-1.9,3.6-3.4,6.3-4.4,8.2c-1,1.9-1.8,3.3-2.2,4.2
		c-0.4,0.9-0.7,1.4-0.8,1.6c-0.1,0.2-0.2,0.4-0.2,0.5c-0.1,0.2-0.2,0.5-0.4,0.9c-0.2,0.4-0.6,1.4-1.3,2.8c-0.7,1.4-1,2.5-1,3.2
		c0,0.8,0.2,1.3,0.5,1.6c0.4,0.3,0.9,0.5,1.5,0.5c0.6,0,1.2-0.1,1.7-0.2c1.1-0.2,2.4-0.8,4-1.6c1.6-0.8,3.2-1.8,4.9-2.8
		c1.7-1.1,3.2-2.1,4.7-3.2c1.4-1.1,2.6-2,3.3-2.7c0.5-0.5,0.9-0.8,1.1-0.8c0.2-0.1,0.3,0,0.4,0.2c0,0.2,0,0.4-0.2,0.8
		c-0.2,0.3-0.4,0.6-0.8,0.9C154.8,63.9,153.8,64.7,152.4,65.8z M147.8,40.6c-1.2,1.2-2.3,1.7-3.1,1.5c-1.2-0.2-1.8-0.7-1.8-1.4
		c0-0.8,0.6-1.8,1.9-3.1c1.3-1.3,2.3-2.1,3.1-2.3c0.6-0.1,1.2,0.1,1.7,0.5c0.5,0.5,0.7,1,0.5,1.5C150,38.3,149.2,39.4,147.8,40.6z"
		/>
	<path d="M174.5,63.9c0.4-1.9,0.8-3.5,1-4.8c0.3-1.3,0.4-2.3,0.5-3.1c-2.7,2.4-6.1,5-10.2,7.7c-5.4,3.6-9.6,6.1-12.8,7.3
		c-0.3,0.1-0.6,0.2-0.8,0.2c-0.5,0-0.9-0.2-1.3-0.6c-0.3-0.4-0.4-0.8-0.3-1.2c0.3-1.1,2.9-6,7.6-14.6c0.1-0.2,0.1-0.7,0-1.4
		c-0.1-0.7,0-1.3,0.1-1.6c0.2-0.4,1.3-1,3.2-1.8c2-0.9,3.2-1.4,3.7-1.4c0.8-0.1,1.2,0.4,1.3,1.3c-1.2,0.5-3.1,2.7-5.9,6.5
		c-2.3,3.3-4,6.1-5,8.2c-0.2,0.4-0.3,0.8-0.3,1.1c0,0.6,0.2,0.9,0.7,1.1c0.6,0.2,1.1,0.2,1.5,0c1.3-0.5,2.8-1.3,4.6-2.3
		c1.8-1,3.9-2.4,6.2-4c1.8-1.3,3.4-2.4,4.7-3.4c1.3-1,2.4-1.9,3.1-2.6c0.3-0.5,0.6-0.9,1-1.3c0.4-0.4,0.7-0.6,1.1-0.6
		c0.9-0.1,1.7,0.2,2.1,0.7c0.5,0.5,0.7,1,0.5,1.6c-0.2,0.3-0.4,0.6-0.6,0.9c-0.2,0.3-0.4,0.7-0.7,1.2c-1.1,4-2.9,9.6-5.3,16.8
		c8.5-1.6,16.6-2.3,24.3-2.3c2.7,0,4.9,0.2,6.4,0.5c0.6,0.1,1.2,0.4,1.9,0.8c0.6,0.4,1.2,0.9,1.8,1.4c0.5,0.6,1,1.2,1.3,1.8
		c0.3,0.7,0.5,1.4,0.5,2.1c0,0.7-0.2,1.3-0.5,1.8c-0.7,1.4-2.5,3.2-5.4,5.5c-0.4,0.4-0.8,0.7-1.2,0.7c-0.1,0-0.2,0-0.2-0.1
		c0-0.3,0.3-0.7,0.8-1.1c3.3-3.1,4.9-5.9,4.9-8.3c0-2-1.4-3.1-4.1-3.3c-0.8-0.1-1.7-0.1-2.7-0.1c-1,0-2.2,0-3.5,0
		c-10.1,0-18.4,0.7-24.8,2c-16.5,46.9-36.4,71.1-59.8,72.6c-8,0.5-15.4-1.9-22.1-7.3c-6.7-5.3-10.1-11.2-10.1-17.8
		c0-2.2,0.4-4.3,1.3-6.3c4.3-10,17.7-19.4,40.2-28.3c7.8-3,15.6-5.7,23.6-8c7.9-2.3,16.1-4.3,24.5-5.9
		C172.6,71.6,173.5,68.2,174.5,63.9z M84.8,121.2c-0.2,0.9-0.3,1.8-0.3,2.7c0,5.9,3,11.1,8.9,15.6c6.2,4.7,13.2,6.9,20.9,6.6
		c13.4-0.5,26.2-10.6,38.5-30.2c3.7-6.1,7.2-12.5,10.2-19.2c3.1-6.7,5.9-13.8,8.3-21.3c-20.1,4.1-37.7,9.7-53,16.6
		c-18.2,8.4-29.1,17.2-32.8,26.4C85.3,119.5,85,120.3,84.8,121.2z"/>
	<path d="M261.9,16.2c1.3,1.8,1.9,4.2,1.9,7.1c0,1.3-0.1,2.6-0.4,3.8c-0.8,3-2.4,7.1-5,12.3c-2.5,5.2-6,11.5-10.5,19
		c-0.4,0.6-0.6,1.1-0.6,1.5c0,0.2,0.1,0.3,0.3,0.3c0.4,0,0.8-0.4,1.3-1.3c2.3-2.9,4.8-5.9,7.6-8.9c2.8-3,5.8-6.1,9.2-9.4
		c9-8.9,16-13.7,20.9-14.5c0.8-0.2,1.5,0,2,0.4c0.6,0.4,1.1,1,1.8,1.7c0.8,0.9,1.2,1.7,1.3,2.5c0.1,0.8,0.2,1.5,0.2,2.3
		c0,0.3,0,0.7,0,1c0,0.3-0.1,0.6-0.2,0.8c-2,3.7-4,7.4-6,11c-2,3.6-4,7.3-5.9,11c-1,1.8-2.3,4.4-3.8,7.5c-1.5,3.2-3.1,6.7-4.8,10.5
		c-1.7,3.8-3.3,7.7-5,11.7c-1.6,4-3.1,7.7-4.3,11.2c-1.2,3.5-2.1,6.5-2.7,9c-0.6,2.5-0.7,4.3-0.2,5.1c0.1,0.3,0.1,0.6,0,0.9
		c-0.1,0.3-0.2,0.6-0.2,0.9c0,1.7,0.4,2.5,1.3,2.5c2.3,0,6.4-2.9,12.2-8.6c0.7-0.7,1.1-1,1.3-1c0.1,0.1,0.2,0.2,0.2,0.3
		c0,0.2-0.3,0.7-0.8,1.4c-0.9,1.6-2.8,3.5-5.5,5.7c-3,2.3-5.2,3.5-6.7,3.5c-0.6,0-1.1-0.2-1.6-0.6c-0.4-0.4-0.8-0.9-1.2-1.4
		c-0.3-0.6-0.6-1.2-0.8-1.8c-0.2-0.7-0.3-1.3-0.3-1.9c0.1-0.9,0.4-2.6,1.1-5.1c0.7-2.5,1.6-5.5,2.7-9c1.1-3.4,2.4-7.1,3.8-11
		c1.4-3.9,2.8-7.8,4.2-11.5c1.4-3.7,2.8-7.1,4.1-10.2c1.3-3.1,2.4-5.6,3.3-7.4l12.1-24.6c0.6-1.2,0.9-2.2,0.9-3.2
		c0-1.2-0.6-1.8-1.9-1.8c-0.8,0-1.8,0.3-3,0.8c-5,2.1-11,6.4-18,13c-2.8,2.7-5.6,5.6-8.4,8.6c-2.7,3-5.5,6.2-8.2,9.7
		c-2.3,2.9-4.2,5.4-5.7,7.4c-1.5,2.1-2.7,3.8-3.6,5.2c-0.6,0.9-1.3,1.3-2.1,1.3c-0.7,0-1.1-0.3-1.1-0.9c0-0.2,0-0.3,0.1-0.5
		c0.1-0.2,0.2-0.4,0.3-0.7c13.6-22.3,21.5-37.3,23.9-44.8c0.3-0.9,0.5-1.8,0.6-2.6c0.1-0.8,0.2-1.6,0.2-2.4c0-4.6-2-7.1-6.1-7.4
		c-3.8-0.2-9.3,1.6-16.2,5.5c-3.5,2.1-6.7,4.2-9.7,6.4c-3,2.2-5.7,4.7-8.3,7.4c-5.6,5.7-8.4,10.7-8.4,14.9c0,1.5,0.7,2.4,2.2,2.7
		c0.8,0.2,1.7,0.3,2.6,0.3c0.9,0,1.7,0,2.5-0.2c0.7-0.1,1,0,1,0.3c0,0.3-0.3,0.5-1,0.7c-2,0.6-3.6,0.8-5,0.5
		c-2.7-0.5-3.9-2.6-3.8-6.3c0.2-3.6,2.9-8.1,8.1-13.7c2.6-2.8,5.4-5.4,8.3-7.7c2.9-2.3,6-4.4,9.3-6.4c3.7-2.1,7-3.6,10-4.6
		c3-1,5.7-1.5,8.1-1.3C258.6,12.8,260.5,14,261.9,16.2z"/>
	<path d="M317.4,50.5c-1.3,0.9-2.7,1.4-4.2,1.6c-0.9,0.2-2.4,0.3-4.2,0.3c-1.9,0.1-3.9,0.1-6.2,0.2c-2.2,0.1-4.5,0.1-6.7,0.1
		c-2.2,0-4.2,0-5.9,0c-0.6,0.8-1.3,1.8-2,2.8c-0.7,1-1.4,2.1-2,3.3c-0.6,1.2-1.1,2.4-1.6,3.6c-0.4,1.3-0.7,2.6-0.8,3.9
		c-0.1,1.2,0.1,2.2,0.4,3c0.3,0.8,0.7,1.4,1.3,1.8c0.5,0.4,1.1,0.7,1.8,0.8c0.7,0.1,1.4,0.2,2.1,0.1c1.8-0.3,3.8-0.8,5.9-1.6
		c2.1-0.8,3.9-1.6,5.4-2.4c0.4-0.3,0.8-0.3,1-0.1c0.2,0.2,0.1,0.4-0.3,0.7c-0.6,0.4-1.3,0.9-2.2,1.5c-0.8,0.5-1.8,1-2.8,1.5
		c-1,0.5-2.1,1-3.1,1.4c-1.1,0.4-2.1,0.7-3.1,0.9c-0.8,0.2-1.8,0.1-2.8-0.3c-1-0.4-1.9-0.9-2.8-1.6c-0.8-0.7-1.5-1.6-2.1-2.6
		c-0.6-1-0.8-2-0.8-3.1c0.2-3.1,1-6.1,2.6-9.2c1.5-3.1,3.4-5.9,5.6-8.6c2.2-2.6,4.5-4.9,6.9-6.9c2.4-1.9,4.6-3.3,6.6-4.1
		c1.1-0.3,2-0.3,2.8,0.1c0.8,0.4,1.5,1,2,1.8c0.5,0.8,0.8,1.7,0.8,2.7c0.1,1-0.1,1.9-0.6,2.8c-0.8,1.6-2.3,2.9-4.5,3.9
		c-2.2,1.1-4.7,1.8-7.4,2.3c1.5,0,3,0,4.6,0c1.6,0,3.2,0,4.6,0c1.4,0,2.8-0.1,4.1-0.1c1.3-0.1,2.3-0.1,3.2-0.3
		c1.2-0.1,2.4-0.5,3.6-1.1c1.2-0.6,2.1-1.2,2.8-1.8c0.3-0.4,0.5-0.5,0.7-0.4c0.2,0.1,0.2,0.4-0.1,0.8
		C319.6,48.9,318.6,49.6,317.4,50.5z M307.6,42c0.1-0.7-0.1-1.2-0.4-1.5c-0.3-0.4-0.8-0.5-1.5-0.5c-0.6,0-1.4,0.3-2.2,0.7
		c-2.1,1.2-4.2,2.7-6.3,4.6c-2.1,1.9-4.1,3.9-6,6c1.5,0,3-0.2,4.5-0.5c1.6-0.3,3-0.8,4.4-1.5c1.4-0.6,2.7-1.4,3.8-2.2
		c1.1-0.8,2.1-1.8,2.7-2.8C307.2,43.5,307.5,42.7,307.6,42z"/>
	<path d="M330.6,48.7c-1.5,1.1-3.4,1.9-5.6,2.4c1.3-0.9,2.6-2,4.1-3.3c1.5-1.2,2.5-2.3,3.2-3.3c0.6-0.9,0.9-1.7,0.9-2.3
		c0.1-0.7-0.1-1.2-0.4-1.5c-0.3-0.4-0.8-0.5-1.5-0.5c-0.6,0-1.4,0.3-2.2,0.7c-2.1,1.2-4.1,2.7-6.2,4.6c-2.1,1.9-4.1,3.9-6,6.1
		l-1,1.3c-1.3,1.7-2.6,3.8-3.9,6.1c-1.3,2.3-2.1,4.9-2.3,7.5c-0.1,1.2,0.1,2.2,0.4,3c0.3,0.8,0.7,1.4,1.3,1.8
		c0.5,0.4,1.1,0.7,1.8,0.8c0.7,0.1,1.4,0.2,2.1,0.1c1.8-0.2,3.8-0.7,5.9-1.5c2.1-0.8,3.9-1.6,5.5-2.5c0.4-0.3,0.8-0.3,1-0.1
		c0.2,0.2,0.1,0.4-0.4,0.7c-0.6,0.4-1.3,0.9-2.2,1.5c-0.8,0.5-1.8,1-2.8,1.5c-1,0.5-2,1-3.1,1.4c-1.1,0.4-2.1,0.7-3.2,0.9
		c-0.8,0.2-1.7,0.1-2.7-0.3c-1-0.4-1.9-0.9-2.8-1.6c-0.9-0.7-1.6-1.5-2.1-2.6c-0.6-1-0.8-2.1-0.8-3.2c0.1-2,0.5-4,1.3-6.1
		c0.8-2.1,1.7-4.1,2.9-6c1.2-2,2.5-3.8,4-5.6c1.5-1.8,3-3.3,4.6-4.8s3.1-2.6,4.7-3.6c1.6-1,3-1.7,4.4-2.1c1.1-0.3,2.1-0.4,3.1-0.1
		c1,0.3,1.8,0.8,2.3,1.4c0.6,0.7,0.9,1.5,0.9,2.5c0,1-0.4,2-1.3,3.1C333.3,46.5,332.1,47.6,330.6,48.7z M324.9,51.1L324.9,51.1
		c0.1-0.1,0.1-0.1,0.1-0.2C325,50.9,324.9,51,324.9,51.1z"/>
	<path d="M320.7,115.6c-1.5-1.6-2.5-3.4-2.8-5.5c-0.4-2-0.6-4.3-0.6-6.7c0-7.9,3.2-19.1,9.6-33.8c2.8-6.5,5.7-12.3,8.5-17.5
		s5.7-9.8,8.5-14c0.7-0.7,1-1.6,1-2.5c0-1-0.5-1.8-1.5-2.3c-2-0.8-2.8-1.6-2.3-2.6c0.2-0.3,1-0.6,2.5-0.8c1.5-0.2,3.6-0.3,6.2-0.3
		c0.2,0,0.3-0.1,0.1-0.3c-0.2-0.2-0.2-0.3-0.1-0.5c2.7-4.2,5.8-8.4,9.3-12.5c3.5-4.2,7.2-8.5,11-12.9c0.3-0.4,1.9-1.1,4.7-2.2
		c1.3-0.4,2.3-0.8,2.9-1c0.6-0.3,1.2-0.4,1.9-0.4c0.6,0,0.9,0.3,0.9,0.8c0,0.2-0.3,0.4-0.8,0.6c-5.2,1.1-13.9,9.9-26,26.5
		c-0.9,1.3-0.7,1.9,0.6,1.9h12.1c3.3,0,5.8,0,7.7,0c1.8,0,2.9,0,3.4,0c0.5,0,0.8,0.1,1,0.3c0,0.1-0.2,0.4-0.5,0.9
		c-0.3,0.5-0.7,0.7-1.2,0.8c-3.2,0.1-6.8,0.3-10.9,0.5c-4.1,0.3-8.8,0.5-14,0.8c-0.9,0.2-1.6,0.6-2.1,1.3c-3,4.4-5.7,8.7-8.4,13
		c-2.6,4.3-5.2,9-7.7,14c-3.8,8-6.9,15.2-9.1,21.7c-2.2,6.5-3.6,12.3-4,17.5c-0.1,0.7-0.1,1.4-0.1,2c0,0.7,0,1.3,0,2
		c0,9.7,3.4,14.6,10.3,14.6c2,0,4.1-0.4,6.5-1.1c3.5-1.1,7-2.9,10.5-5.3c3.5-2.4,7-5.5,10.5-9.4c3.7-3.8,6.5-7.4,8.5-10.8
		c2-3.3,3.2-6.5,3.6-9.5c0-5.2-1.9-7.6-5.6-6.9c-0.8,0.1-1.6,0.4-2.2,0.8c-0.6,0.4-1.1,0.6-1.3,0.6c-0.6,0-0.8-0.3-0.7-0.8
		c0.3-0.4,0.7-0.8,1.2-1.2c0.5-0.3,1.5-0.8,3-1.4c0.2-0.1,0.6-0.1,1-0.1c1.8,0,3.5,1.2,5.1,3.6c1.7,2.5,2.5,4.4,2.3,5.7
		c-1.1,7.4-6.4,15.4-16,24c-4.9,4.3-9.4,7.6-13.6,9.9c-4.2,2.2-8.2,3.3-11.9,3.3C327.3,120.6,323.6,118.9,320.7,115.6z"/>
	<path d="M337.5,73.6c-1.4,0-2.1-1-2.1-2.9c0-4,3.1-9,9.3-15.2c2.8-2.8,5.5-5.1,8-6.9s4.9-3.1,7-4c0.5-0.2,1-0.3,1.6-0.5
		c0.6-0.1,1.2-0.2,1.8-0.2c0.7,0,1.3,0.1,2,0.2c0.7,0.1,1.3,0.3,2,0.5c0.9,0.1,1.5,0.1,1.6,0.1c1-0.2,1.7-0.5,2.2-1.1
		c0.1-0.1,0.3-0.2,0.5-0.2c0.2,0,0.4,0.1,0.6,0.4c0.2,0.3,0.2,0.5,0.2,0.6c-1.6,2.5-3.2,5-4.8,7.4c-1.6,2.4-3.1,4.9-4.6,7.4
		c-1.2,2-2.3,4.2-3.4,6.7c-1.1,2.5-2.1,5.1-3.1,7.7c-0.9,2.6-1.7,5.1-2.4,7.4c-0.7,2.3-1.1,4.3-1.3,5.9c-0.1,0.3-0.1,0.5-0.1,0.8
		c0,0.3,0,0.6,0,0.8c0,1.9,0.6,3.3,1.8,4.2c1.2,0.9,2.8,1.4,4.8,1.4c2,0,4-0.3,5.9-1c3-1,6.8-3.4,11.5-7.2c2.3-1.8,4.3-3.7,6.2-5.7
		c1.8-2,3.4-3.8,4.7-5.5c0.5-0.6,0.8-0.8,1-0.8c0.1,0.1,0.1,0.1,0.1,0.3c0,0.2-0.1,0.5-0.3,0.9c-1.3,1.9-2.8,3.9-4.6,6
		c-1.8,2.1-4,4.2-6.5,6.4c-2.3,1.9-4.4,3.5-6.3,4.7c-1.9,1.2-3.6,2.1-5.1,2.7c-0.8,0.3-1.6,0.5-2.3,0.6c-0.8,0.1-1.6,0.2-2.5,0.2
		c-1.3,0-2.6-0.2-3.7-0.6c-1.1-0.4-2.1-0.9-3-1.5c-1.1-0.6-1.8-1.5-2.2-2.6c-0.4-1.1-0.6-2.4-0.5-3.9c0.1-1.2,0.3-2.7,0.7-4.7
		c0.4-2,1-4,1.6-6.2c0.7-2.2,1.4-4.4,2.2-6.6c0.8-2.2,1.6-4.1,2.3-5.8c0.9-2,1.9-3.9,2.8-5.6c0.9-1.7,1.9-3.3,2.8-4.8
		c0.4-0.6,0.4-0.9-0.1-0.9c-0.1,0-0.1,0.1-0.3,0.2c-1.3,1.6-2.9,3.3-4.8,5.1c-1.9,1.8-4,3.7-6.5,5.9c-4.9,4.1-9.1,7.2-12.6,9.3
		C338.7,73.4,338.1,73.6,337.5,73.6z M340.4,67.8c0,1.3,0.5,2,1.5,2c0.4,0,0.8-0.1,1.3-0.4c3.1-2,6.4-4.6,9.9-7.9
		c3.5-3.3,7.2-7.3,11.1-12.1c0.2-0.2,0.3-0.4,0.3-0.6c0-0.6-0.4-1.2-1.1-1.7c-0.7-0.5-1.6-0.8-2.8-0.8c-0.6,0-1.3,0.1-1.9,0.3
		c-2.6,0.7-5.9,3.2-10,7.6c-1.9,2.1-3.5,4.2-4.8,6.1c-1.3,2-2.4,3.8-3.1,5.6C340.6,66.5,340.4,67.1,340.4,67.8z"/>
	<path d="M362.4,75.2c-0.1-0.3-0.1-0.6,0.1-0.8c5.4-8.4,9.1-14.8,11-19.3c0.3-0.8,0.5-1.5,0.5-2.1c0-0.1-0.1-0.4-0.3-0.9
		c-0.1-0.2-0.1-0.4,0-0.6c0.7-0.2,2.8-1.4,6.3-3.5c0.1-0.1,0.2-0.2,0.3-0.2c0.3,0,0.6,0.1,0.7,0.4c0.2,0.3,0.2,0.6-0.1,0.9
		c-1.8,2.5-3.3,4.6-4.6,6.4c-1.3,1.8-2.2,3.3-2.8,4.6c-0.2,0.3-0.3,0.6-0.3,0.8c0,0.3,0.3,0.3,0.9,0.1c0.5-0.2,0.8-0.4,1-0.7
		c2.2-2.6,5-5.3,8.5-8.1c3.6-2.9,6.4-4.8,8.4-5.6c1.7-0.1,3,0.1,3.8,0.5c0.1,0.1,0.1,0.1,0.1,0.2c0,0.2-0.1,0.4-0.3,0.7
		c-0.2,0.3-0.4,0.6-0.7,0.8c-0.3,0.3-0.5,0.4-0.8,0.6c-0.3,0.1-0.5,0.2-0.7,0c-1.1-0.5-2.6-0.3-4.5,0.8
		c-8.3,4.6-15.6,12.2-22.1,22.8c0,0.2-0.2,0.4-0.7,0.6c-0.4,0.2-0.9,0.4-1.5,0.6c-0.6,0.3-1.2,0.6-1.9,1
		C362.6,75.5,362.4,75.5,362.4,75.2z"/>
</g>
<path d="M133-28"/>
</svg>
